<svg width="86" height="86" viewBox="0 0 86 86" fill="none" xmlns="http://www.w3.org/2000/svg">
<path d="M43 57.334C48.9371 57.334 53.75 52.521 53.75 46.584C53.75 40.6469 48.9371 35.834 43 35.834C37.0629 35.834 32.25 40.6469 32.25 46.584C32.25 52.521 37.0629 57.334 43 57.334Z" stroke="black" stroke-width="1.5"/>
<path d="M7.16602 47.8878C7.16602 36.9049 7.16602 31.4153 9.84993 27.4736C11.0151 25.7595 12.5082 24.2932 14.2431 23.1592C16.8231 21.4643 20.0553 20.8588 25.0038 20.6438C27.3653 20.6438 29.397 18.8879 29.8593 16.6125C30.2125 14.9458 31.1304 13.4521 32.4577 12.384C33.7851 11.3159 35.4405 10.7387 37.1442 10.7502H48.8545C52.3948 10.7502 55.4443 13.2048 56.1394 16.6125C56.6017 18.8879 58.6334 20.6438 60.9948 20.6438C65.9398 20.8588 69.172 21.4679 71.7556 23.1592C73.4935 24.2987 74.9878 25.7643 76.1488 27.4736C78.8327 31.4153 78.8327 36.9049 78.8327 47.8878C78.8327 58.8672 78.8327 64.3568 76.1488 68.3021C74.9816 70.0145 73.4888 71.4804 71.7556 72.6164C67.7387 75.2502 62.1451 75.2502 50.9615 75.2502H35.0372C23.8536 75.2502 18.26 75.2502 14.2431 72.6164C12.5107 71.4791 11.0191 70.0119 9.85352 68.2985C9.07686 67.1379 8.50368 65.8534 8.1586 64.5002M68.0827 35.8335H64.4993" stroke="black" stroke-width="1.5" stroke-linecap="round"/>
</svg>
